<?xml version="1.0" standalone="no"?>
<!DOCTYPE svg PUBLIC "-//W3C//DTD SVG 20010904//EN"
 "http://www.w3.org/TR/2001/REC-SVG-20010904/DTD/svg10.dtd">
<svg version="1.0" xmlns="http://www.w3.org/2000/svg"
 width="200.000000pt" height="200.000000pt" viewBox="0 0 200.000000 200.000000"
 preserveAspectRatio="xMidYMid meet">

<g transform="translate(0.000000,200.000000) scale(0.100000,-0.100000)"
fill="#000000" stroke="none">
<path d="M862 1829 c-172 -29 -320 -107 -452 -239 -165 -165 -250 -365 -250
-590 0 -225 85 -425 250 -590 105 -105 194 -162 320 -204 234 -78 472 -55 690
67 102 57 250 205 307 307 149 267 149 573 0 840 -57 102 -205 250 -307 307
-171 96 -373 133 -558 102z m355 -65 c210 -61 377 -196 480 -390 207 -391 52
-879 -342 -1074 -55 -27 -129 -56 -164 -65 -74 -19 -226 -31 -265 -21 l-26 6
0 785 0 784 28 4 c55 10 208 -5 289 -29z m-357 -678 c0 -398 -4 -697 -9 -700
-5 -3 -12 2 -15 11 -4 9 -38 105 -77 212 -39 108 -77 212 -84 231 -33 79 -255
694 -255 705 0 13 102 96 165 136 73 45 205 98 248 98 l27 1 0 -694z m-438
301 c20 -56 120 -331 223 -612 103 -280 189 -518 192 -529 5 -16 2 -17 -28
-11 -64 13 -182 66 -248 110 -74 48 -168 140 -213 206 -156 228 -183 541 -68
786 31 67 86 153 98 153 4 0 23 -46 44 -103z"/>
<path d="M970 1537 c0 -20 8 -25 51 -36 86 -22 149 -103 149 -191 0 -88 -63
-169 -149 -191 -44 -11 -51 -16 -51 -37 0 -23 3 -24 37 -17 60 11 127 51 156
92 37 55 47 86 47 157 0 112 -58 194 -163 230 -64 22 -77 20 -77 -7z"/>
<path d="M1430 1551 c-72 -22 -138 -79 -164 -143 -9 -21 -16 -65 -16 -98 0
-33 7 -77 16 -98 30 -72 106 -131 187 -146 34 -6 37 -5 37 17 0 21 -7 26 -42
36 -116 29 -175 127 -148 243 17 69 69 121 139 138 44 10 51 15 51 36 0 26
-13 29 -60 15z"/>
</g>
</svg>
